<svg xmlns="http://www.w3.org/2000/svg" xmlns:xlink="http://www.w3.org/1999/xlink" version="1.1" x="0px" y="0px" viewBox="0 0 100 125" style="enable-background:new 0 0 100 100;" xml:space="preserve"><path d="M31.8,51.1l-5.4,2.1c-1,0.4-2.1-0.1-2.5-1.1l-0.2-0.4c-0.4-1,0.1-2.1,1.1-2.5l5.4-2.1  c1-0.4,2.1,0.1,2.5,1.1l0.2,0.4C33.3,49.6,32.8,50.7,31.8,51.1z" fill="#FFFFFF"/><path d="M44.9,41.7l-4.6,3.5c-0.9,0.6-2.1,0.5-2.7-0.4l-0.3-0.3c-0.6-0.9-0.5-2.1,0.4-2.7l4.6-3.5  c0.9-0.6,2.1-0.5,2.7,0.4l0.3,0.3C45.9,39.8,45.8,41,44.9,41.7z" fill="#FFFFFF"/><path d="M57.8,37.5L52,37.9c-1.1,0.1-2-0.7-2.1-1.8l0-0.4c-0.1-1.1,0.7-2,1.8-2.1l5.8-0.4c1.1-0.1,2,0.7,2.1,1.8  l0,0.4C59.6,36.5,58.8,37.4,57.8,37.5z" fill="#FFFFFF"/><path d="M71.9,30.7l-5.4,2.1c-1,0.4-2.1-0.1-2.5-1.1l-0.2-0.4c-0.4-1,0.1-2.1,1.1-2.5l5.4-2.1  c1-0.4,2.1,0.1,2.5,1.1l0.2,0.4C73.3,29.2,72.8,30.3,71.9,30.7z" fill="#FFFFFF"/><path d="M84.3,31.3l-5.4-2.2c-1-0.4-1.5-1.5-1.1-2.5l0.2-0.4c0.4-1,1.5-1.5,2.5-1.1l5.4,2.2c1,0.4,1.5,1.5,1.1,2.5  l-0.2,0.4C86.5,31.2,85.3,31.7,84.3,31.3z" fill="#FFFFFF"/><path d="M87.2,41.5l0.8-5.7c0.2-1.1,1.1-1.8,2.2-1.6l0.4,0.1c1.1,0.2,1.8,1.1,1.6,2.2l-0.8,5.7  c-0.2,1.1-1.1,1.8-2.2,1.6l-0.4-0.1C87.8,43.5,87,42.5,87.2,41.5z" fill="#FFFFFF"/><path d="M78.5,49.1l5.1-2.9c0.9-0.5,2.1-0.2,2.6,0.7l0.2,0.4c0.5,0.9,0.2,2.1-0.7,2.6l-5.1,2.9  c-0.9,0.5-2.1,0.2-2.6-0.7l-0.2-0.4C77.3,50.8,77.6,49.6,78.5,49.1z" fill="#FFFFFF"/><path d="M73.3,66.9l3.1,4.9c0.6,0.9,0.3,2.1-0.6,2.7l-0.4,0.2c-0.9,0.6-2.1,0.3-2.7-0.6l-3.1-4.9  c-0.6-0.9-0.3-2.1,0.6-2.7l0.4-0.2C71.5,65.7,72.7,66,73.3,66.9z" fill="#FFFFFF"/><path d="M74.8,56.5l-2.4,5.3c-0.4,1-1.6,1.4-2.6,1l-0.4-0.2c-1-0.4-1.4-1.6-1-2.6l2.4-5.3c0.4-1,1.6-1.4,2.6-1  l0.4,0.2C74.8,54.4,75.2,55.5,74.8,56.5z" fill="#FFFFFF"/><path d="M89.4,82.2c0-4-3.3-7.3-7.3-7.3s-7.3,3.3-7.3,7.3c0,1.4,0.4,2.7,1.1,3.8h0l0,0c0.1,0.2,0.3,0.5,0.5,0.7  l5.7,8.3l5.7-8.3c0.2-0.2,0.3-0.4,0.5-0.7l0,0h0C89,84.9,89.4,83.6,89.4,82.2z M82.1,85.2c-2.2,0-3.9-1.7-3.9-3.9s1.7-3.9,3.9-3.9  s3.9,1.7,3.9,3.9S84.3,85.2,82.1,85.2z" fill="#FFFFFF"/><path d="M22.2,46.8c0-4-3.3-7.3-7.3-7.3s-7.3,3.3-7.3,7.3c0,1.4,0.4,2.7,1.1,3.8h0l0,0c0.1,0.2,0.3,0.5,0.5,0.7  l5.7,8.3l5.7-8.3c0.2-0.2,0.3-0.4,0.5-0.7l0,0h0C21.8,49.5,22.2,48.2,22.2,46.8z M15,49.9c-2.2,0-3.9-1.7-3.9-3.9  c0-2.2,1.7-3.9,3.9-3.9s3.9,1.7,3.9,3.9C18.9,48.1,17.1,49.9,15,49.9z" fill="#FFFFFF"/><path d="M82.9,12.4c0-4-3.3-7.3-7.3-7.3s-7.3,3.3-7.3,7.3c0,1.4,0.4,2.7,1.1,3.8h0l0,0c0.1,0.2,0.3,0.5,0.5,0.7  l5.7,8.3l5.7-8.3c0.2-0.2,0.3-0.4,0.5-0.7l0,0h0C82.5,15,82.9,13.7,82.9,12.4z M75.6,15.4c-2.2,0-3.9-1.7-3.9-3.9  c0-2.2,1.7-3.9,3.9-3.9s3.9,1.7,3.9,3.9C79.5,13.7,77.8,15.4,75.6,15.4z" fill="#FFFFFF"/></svg>